<?xml version="1.0" standalone="no"?> <!DOCTYPE svg PUBLIC "-//W3C//DTD SVG 20010904//EN" "http://www.w3.org/TR/2001/REC-SVG-20010904/DTD/svg10.dtd"> <svg version="1.0" xmlns="http://www.w3.org/2000/svg" width="600.000000pt" height="600.000000pt" viewBox="0 0 600.000000 600.000000" preserveAspectRatio="xMidYMid meet"> <g transform="translate(0.000000,600.000000) scale(0.050000,-0.050000)" fill="#363636" stroke="none"> <path d="M5640 11499 c-1789 -142 -3312 -1301 -3948 -3005 -193 -516 -319 -1303 -283 -1766 l13 -163 -176 -12 c-97 -7 -295 -18 -441 -25 -146 -7 -270 -20 -275 -28 -25 -40 2067 -50 2106 -10 23 22 -21 27 -471 52 l-465 26 0 321 c3 2044 1416 3801 3392 4218 2788 589 5243 -1496 5190 -4409 l-2 -132 -471 -26 c-258 -14 -474 -32 -479 -40 -21 -34 1254 -53 1874 -27 429 18 383 36 -168 67 l-466 26 -2 362 c-12 2699 -2260 4783 -4928 4571z m-3980 -4959 c-40 -26 -194 -26 -210 0 -8 13 35 20 114 20 89 -1 117 -6 96 -20z m8860 0 c-39 -26 -174 -26 -190 0 -8 12 31 20 104 20 82 -1 107 -6 86 -20z"/> <path d="M5560 10986 c-2076 -219 -3719 -2025 -3697 -4066 l2 -210 26 260 c221 2145 1712 3693 3749 3891 2275 221 4310 -1573 4453 -3927 10 -158 18 -208 31 -175 21 59 -12 549 -55 791 -379 2180 -2329 3666 -4509 3436z"/> <path d="M5703 10320 c-535 -192 -780 -815 -521 -1320 101 -197 115 -208 281 -216 l147 -7 -71 50 c-363 253 -386 860 -45 1175 243 224 638 262 896 87 l76 -52 61 61 c60 60 61 62 22 91 -213 161 -597 221 -846 131z"/> <path d="M6725 10144 c-19 -19 -201 -217 -404 -440 -203 -222 -375 -404 -384 -404 -8 0 -71 63 -139 139 -69 77 -138 144 -153 150 -36 14 -190 -140 -181 -180 11 -51 462 -491 497 -485 18 3 226 218 463 476 237 259 454 492 483 518 72 66 67 101 -28 188 -92 84 -106 88 -154 38z"/> <path d="M6798 9634 c-46 -55 -54 -87 -62 -237 -11 -210 -87 -387 -221 -510 -110 -102 -107 -115 25 -109 213 10 362 278 362 650 0 275 -18 310 -104 206z"/> <path d="M4483 8782 c-31 -20 -213 -1222 -188 -1243 8 -6 87 -24 175 -38 294 -47 632 -179 907 -355 160 -102 116 -97 -103 13 -324 163 -704 281 -900 281 -39 0 -91 18 -121 41 l-53 42 0 -100 c0 -123 5 -126 207 -137 318 -16 1039 -232 1256 -376 43 -28 105 -50 142 -50 l65 0 -60 31 c-86 45 -113 78 -50 62 223 -57 271 -25 61 41 -101 32 -185 80 -314 177 -178 136 -489 303 -678 362 -93 29 -107 41 -127 109 -24 80 -97 151 -175 171 -56 14 -56 10 -7 337 21 143 39 271 40 285 0 16 30 25 82 25 78 0 174 64 200 133 6 16 51 15 168 -4 195 -31 629 -69 789 -69 117 0 139 17 141 105 0 8 -68 15 -151 15 -211 0 -685 52 -1000 111 -309 57 -272 53 -306 31z"/> <path d="M7050 8718 c-314 -48 -640 -78 -845 -78 -91 0 -165 -4 -165 -9 0 -5 11 -33 25 -63 l24 -54 291 13 c270 12 590 43 660 64 19 5 40 -13 57 -52 30 -68 114 -119 197 -119 l56 0 55 -305 c31 -168 55 -311 55 -318 0 -6 -27 -23 -61 -37 -79 -33 -139 -111 -139 -182 0 -46 -11 -60 -55 -71 -197 -49 -574 -240 -776 -395 -84 -64 -191 -109 -334 -141 -30 -6 -55 -22 -55 -34 0 -22 85 -15 198 16 68 19 36 -28 -45 -66 -157 -72 443 34 750 133 311 99 797 354 797 417 0 46 -2 47 -26 16 -17 -24 -89 -48 -216 -72 -260 -51 -459 -121 -776 -273 -302 -145 -352 -152 -149 -22 287 185 778 373 977 374 132 1 137 -53 -103 1190 -24 124 -25 124 -397 68z"/> <path d="M4204 8496 c-27 -27 -33 -527 -10 -766 14 -139 14 -137 68 270 70 523 70 520 12 520 -25 0 -57 -11 -70 -24z"/> <path d="M7567 8435 c10 -41 117 -629 144 -792 27 -162 31 -15 10 369 -23 433 -32 468 -116 468 -41 0 -48 -7 -38 -45z"/> <path d="M5855 8379 c-591 -148 -676 -973 -127 -1238 415 -201 915 114 919 578 3 423 -399 759 -792 660z m355 -156 c327 -149 413 -600 164 -860 -338 -353 -933 -74 -889 416 33 357 410 587 725 444z"/> <path d="M5640 7720 l0 -220 50 0 c45 0 50 8 50 80 0 44 8 80 17 80 9 0 33 -36 53 -80 27 -60 48 -80 83 -80 57 0 57 2 6 101 -36 72 -37 83 -10 111 93 93 5 228 -149 228 l-100 0 0 -220z m190 80 c0 -37 -12 -52 -45 -56 -38 -6 -45 2 -45 56 0 54 7 62 45 56 33 -4 45 -19 45 -56z"/> <path d="M5980 7720 c0 -207 2 -220 40 -220 36 0 40 14 42 135 l1 135 34 -120 c42 -153 91 -171 123 -46 48 187 57 193 58 41 2 -131 6 -145 42 -145 38 0 40 13 40 220 l0 220 -58 0 c-54 0 -60 -8 -93 -131 -39 -145 -54 -141 -92 26 -21 96 -28 105 -80 105 l-57 0 0 -220z"/> <path d="M5051 8069 c-58 -59 -19 -149 66 -149 103 0 140 92 59 149 -57 39 -85 39 -125 0z"/> <path d="M6801 8051 c-32 -38 -20 -112 22 -138 51 -32 137 14 137 73 0 86 -105 130 -159 65z"/> <path d="M7970 7409 c-1168 -922 -2892 -920 -4185 4 -90 64 -49 -24 61 -131 1069 -1039 3355 -982 4217 105 134 168 102 176 -93 22z"/> <path d="M4343 7191 c207 -119 640 -246 1034 -302 339 -49 319 -27 -127 134 -393 142 -1082 270 -907 168z"/> <path d="M10724 6227 c-309 -157 -278 -922 41 -1008 98 -27 194 -12 261 42 63 49 74 49 74 -1 0 -32 13 -40 70 -40 l70 0 0 270 0 270 -180 0 -180 0 0 -80 0 -80 80 0 c66 0 80 -7 80 -39 0 -166 -206 -236 -283 -97 -41 73 -35 450 7 529 65 119 223 97 250 -36 9 -49 19 -58 54 -49 23 6 67 12 97 12 106 0 49 184 -90 287 -75 55 -261 66 -351 20z"/> <path d="M940 5730 l0 -510 110 0 110 0 0 180 0 180 111 0 c255 0 383 164 326 420 -40 184 -144 240 -446 240 l-211 0 0 -510z m420 290 c100 -100 31 -260 -113 -260 l-87 0 0 150 0 150 80 0 c53 0 93 -13 120 -40z"/> <path d="M1740 5730 l0 -510 110 0 110 0 0 510 0 510 -110 0 -110 0 0 -510z"/> <path d="M2140 5730 l0 -510 101 0 101 0 -6 310 c-3 171 -1 310 4 310 6 0 73 -137 150 -305 l140 -305 115 -6 115 -6 0 511 0 511 -113 0 -113 0 15 -315 c14 -329 8 -347 -64 -175 -23 55 -83 188 -133 295 l-91 195 -110 0 -111 0 0 -510z"/> <path d="M3390 5838 c0 -374 -3 -403 -39 -430 -75 -54 -171 4 -171 105 0 51 -3 52 -93 40 -116 -16 -114 -13 -97 -112 47 -278 483 -327 587 -66 13 32 24 225 28 460 l5 405 -110 0 -110 0 0 -402z"/> <path d="M3952 6205 c-5 -19 -65 -237 -133 -483 -67 -247 -127 -461 -133 -475 -8 -21 16 -27 101 -27 118 0 115 -3 143 136 l14 66 143 -6 143 -6 17 -95 17 -95 115 0 114 0 -136 475 c-75 261 -136 491 -136 510 -1 30 -21 35 -130 35 -105 0 -130 -6 -139 -35z m215 -550 c14 -54 13 -55 -84 -55 l-98 0 40 175 c22 96 45 189 50 205 6 17 25 -37 44 -120 19 -82 40 -175 48 -205z"/> <path d="M4590 5731 l0 -511 105 0 104 0 -12 355 c-7 195 -6 349 2 342 8 -8 53 -165 101 -350 l86 -336 77 6 c96 9 82 -19 176 361 44 177 85 322 90 322 6 0 8 -157 5 -350 l-6 -350 101 0 101 0 0 510 0 510 -147 0 -147 0 -76 -295 c-42 -162 -83 -307 -90 -322 -7 -14 -49 116 -93 290 l-79 317 -149 6 -149 6 0 -511z"/> <path d="M5911 6216 c-34 -106 -271 -961 -271 -976 0 -11 49 -20 108 -20 l108 0 17 95 17 95 144 6 144 6 21 -76 c11 -42 21 -87 21 -101 0 -17 35 -25 110 -25 135 0 138 -52 -29 530 l-137 480 -122 6 c-87 4 -125 -2 -131 -20z m177 -398 c19 -89 40 -175 46 -190 8 -22 -13 -28 -94 -28 -81 0 -102 6 -94 28 6 15 27 101 46 190 19 89 41 162 48 162 7 0 29 -73 48 -162z"/> <path d="M6560 5730 l0 -510 99 0 100 0 5 310 6 310 141 -305 140 -305 115 -6 114 -6 0 511 0 511 -105 0 -105 0 6 -315 c7 -321 -2 -348 -61 -195 -17 44 -77 177 -133 295 l-102 215 -110 0 -110 0 0 -510z"/> <path d="M7709 6206 c7 -19 53 -228 102 -465 50 -237 94 -451 100 -476 9 -40 22 -45 118 -45 127 0 109 -34 182 360 29 160 56 293 59 296 3 4 17 -59 30 -140 14 -80 40 -227 59 -326 l34 -180 113 -6 c104 -5 114 -2 123 40 12 50 109 511 161 763 18 85 37 168 43 184 9 23 -11 29 -100 29 -132 0 -115 38 -180 -400 -25 -170 -51 -292 -58 -270 -6 22 -37 182 -67 355 l-56 315 -101 0 -102 0 -44 -255 c-25 -140 -51 -294 -58 -342 -19 -127 -35 -75 -87 282 l-47 315 -118 0 c-104 0 -118 -4 -106 -34z"/> <path d="M9060 6214 c0 -26 -245 -897 -271 -960 -13 -33 -3 -36 103 -30 l118 6 18 95 19 95 145 0 144 0 13 -75 c20 -117 33 -128 144 -121 l99 6 -123 450 c-68 248 -129 475 -136 505 -15 62 -273 89 -273 29z m182 -406 c21 -97 38 -183 38 -192 0 -9 -42 -16 -92 -16 -86 0 -92 3 -81 45 7 25 28 115 46 200 40 185 40 185 89 -37z"/> <path d="M9680 5730 l0 -510 99 0 100 0 5 311 6 311 140 -311 140 -310 115 -1 115 0 0 510 0 510 -105 0 -105 0 7 -315 c7 -331 0 -347 -72 -175 -23 55 -83 188 -133 295 l-91 195 -110 0 -111 0 0 -510z"/> <path d="M1788 4899 l-71 -114 -333 -14 c-184 -7 -381 -14 -439 -15 -58 -1 -110 -8 -115 -16 -10 -16 133 -29 555 -52 185 -10 231 -18 215 -38 -44 -53 135 -618 310 -980 509 -1053 1590 -1896 2850 -2222 188 -48 781 -154 793 -141 36 36 -315 238 -461 265 -835 155 -1640 565 -2262 1153 l-180 170 125 14 125 15 125 -115 c345 -320 822 -604 1335 -795 208 -78 646 -200 636 -178 -52 117 -109 160 -265 205 -558 158 -1086 435 -1517 794 l-161 134 84 37 85 36 130 -119 c303 -278 761 -531 1293 -714 149 -52 148 -52 103 50 -28 63 -50 79 -165 120 -362 127 -758 349 -1068 599 -176 142 -177 144 -95 202 l61 43 89 -88 c221 -218 1009 -683 1064 -628 49 49 -46 168 -179 224 -456 191 -868 531 -1131 934 l-114 175 -490 -2 c-536 -2 -554 1 -680 114 -153 139 -407 564 -380 638 8 22 11 49 7 60 -4 11 13 43 38 72 25 29 80 92 122 140 l77 88 1179 13 c649 7 1185 18 1191 25 14 13 -182 16 -1500 22 l-915 4 -71 -115z m1042 -1199 c45 -19 28 -25 -60 -21 -213 9 -333 -300 -179 -460 64 -67 171 -104 248 -86 40 10 46 7 28 -13 -75 -79 -288 -39 -386 72 -213 242 56 634 349 508z m-575 -24 c-20 -12 -20 -15 0 -16 34 0 32 -69 -2 -98 -32 -26 -59 -2 -91 82 -19 50 -17 52 49 50 42 -1 59 -8 44 -18z m836 -115 c54 51 58 46 29 -31 -20 -52 -19 -53 45 -40 l65 13 -48 -34 -47 -35 57 -25 58 -26 -55 -1 c-64 -2 -68 -15 -21 -67 34 -37 33 -38 -20 -24 -59 15 -65 6 -33 -52 29 -54 -9 -49 -47 6 l-31 45 -15 -70 -15 -70 -17 65 -17 66 -51 -56 c-48 -52 -52 -44 -18 40 17 41 -12 46 -76 12 -42 -21 -41 -20 4 30 l49 53 -69 2 -68 2 55 22 c67 26 69 41 10 70 -44 21 -43 21 12 23 l58 1 -36 55 -36 54 53 -34 c68 -45 70 -45 60 20 l-9 55 39 -48 38 -47 17 57 17 58 8 -67 7 -67 48 45z"/> <path d="M8350 5000 c-609 -13 -260 -27 899 -36 835 -7 871 -11 938 -111 16 -24 46 -61 66 -83 75 -82 101 -120 67 -100 -26 15 -26 13 -3 -16 15 -19 23 -51 17 -73 -5 -21 -1 -42 9 -45 28 -10 -178 -343 -303 -492 -177 -210 -177 -210 -757 -207 l-493 3 -84 -135 c-243 -394 -663 -748 -1141 -964 -167 -75 -269 -183 -220 -233 58 -58 824 379 1072 612 l107 100 58 -41 c78 -56 78 -57 -83 -191 -290 -243 -704 -476 -1062 -597 -164 -56 -175 -64 -215 -145 -50 -103 -56 -103 179 -18 558 200 959 424 1250 696 l127 118 83 -36 84 -37 -177 -148 c-438 -365 -1047 -673 -1581 -800 -86 -20 -112 -38 -166 -112 -77 -108 -90 -107 251 -10 708 200 1278 504 1701 907 l123 117 112 -8 c154 -12 154 -10 -32 -186 -635 -598 -1342 -963 -2206 -1140 -189 -39 -274 -66 -310 -98 -27 -25 -93 -74 -145 -109 -144 -97 -158 -96 315 -20 1416 228 2692 1132 3262 2313 171 354 351 923 309 974 -18 22 30 29 273 40 163 8 328 17 366 21 39 4 93 8 120 9 38 2 43 6 20 19 -16 9 -219 23 -450 31 -457 16 -440 11 -529 150 l-62 96 -664 -3 c-366 -1 -872 -7 -1125 -12z m1540 -1296 c-22 -19 -43 -52 -47 -73 -4 -22 -24 -52 -45 -67 -21 -14 -38 -41 -38 -58 0 -18 -7 -26 -15 -18 -14 15 -16 22 -22 73 -2 12 -12 16 -23 9 -11 -7 -20 -8 -20 -3 0 5 -5 23 -11 39 -13 34 90 94 163 94 25 0 51 9 58 20 7 11 19 20 26 19 8 0 -4 -16 -26 -35z m-660 -4 c32 -14 24 -17 -38 -19 -251 -4 -360 -285 -186 -476 54 -59 180 -94 234 -65 28 15 40 15 40 0 0 -58 -205 -79 -299 -31 -346 180 -108 745 249 591z m129 -115 l25 -55 26 60 27 60 1 -68 2 -69 53 49 c30 27 49 35 42 18 -6 -16 -17 -46 -25 -65 -12 -30 -5 -33 53 -23 l67 12 -56 -39 -55 -39 65 -21 c61 -19 62 -21 14 -23 -73 -3 -83 -21 -32 -65 l44 -38 -58 14 c-55 12 -57 10 -43 -45 14 -55 13 -56 -24 -22 -52 47 -65 43 -67 -21 -2 -54 -3 -54 -23 11 l-22 67 -46 -57 -47 -56 21 58 c24 69 15 82 -38 54 -65 -35 -73 -25 -23 28 l47 50 -69 2 -68 1 56 25 57 25 -47 33 -46 32 57 1 c57 1 57 1 24 52 l-34 52 55 -36 54 -35 -10 64 c-11 79 9 83 43 9z"/> <path d="M5826 4985 c52 -4 133 -4 180 0 46 5 3 8 -96 8 -99 0 -137 -4 -84 -8z"/> <path d="M1820 4778 c-106 -164 -109 -129 32 -361 311 -517 112 -465 1818 -477 l1420 -10 -201 -56 c-284 -80 -259 -40 -257 -418 8 -1033 423 -1760 1241 -2172 l120 -61 149 80 c804 436 1198 1146 1206 2170 2 356 25 318 -231 390 -112 31 -208 61 -214 67 -5 5 634 10 1420 10 l1429 0 65 48 c88 64 215 231 352 460 l113 190 -91 123 c-50 68 -91 131 -91 141 0 11 -1715 17 -4095 17 l-4095 -1 -90 -140z m775 -40 c160 -26 169 -36 93 -96 -28 -22 -46 -50 -38 -61 7 -12 -3 -21 -21 -21 -29 0 -30 -5 -7 -33 25 -29 22 -31 -22 -19 -37 11 -42 9 -21 -6 25 -16 26 -35 8 -101 -20 -77 -19 -81 18 -69 23 7 35 4 28 -7 -6 -10 6 -51 27 -90 36 -66 36 -72 4 -85 -93 -37 -475 -35 -438 3 6 6 -38 71 -98 144 -60 73 -114 158 -121 188 -7 31 -20 61 -30 67 -69 42 13 168 110 168 40 0 73 7 73 15 0 26 282 27 435 3z m7401 -57 c84 -77 12 -270 -164 -439 -39 -38 -67 -74 -62 -82 9 -15 0 -17 -150 -33 -60 -6 -123 -21 -138 -34 -22 -17 -31 -17 -37 2 -5 14 -41 25 -82 25 -55 0 -80 11 -101 45 -21 35 -21 40 0 20 31 -29 66 -34 48 -6 -6 11 7 31 29 45 23 14 41 41 41 60 0 18 8 39 18 45 9 5 22 29 28 52 9 35 6 37 -19 17 -25 -21 -28 -17 -16 31 10 38 6 61 -13 74 -20 14 -13 15 21 6 45 -13 47 -12 16 18 -17 18 -44 33 -59 34 -16 0 -11 12 14 32 38 30 36 31 -40 21 -44 -6 -65 -7 -47 -2 21 7 29 24 23 49 -9 31 0 39 42 39 28 0 52 9 52 19 0 20 306 36 453 24 55 -4 102 -25 143 -62z m-6676 39 c45 -28 64 -571 20 -579 -45 -8 -223 -5 -232 4 -15 15 58 175 80 175 14 1 13 6 -2 16 -19 12 -18 28 5 72 35 68 37 88 6 57 -15 -15 -35 -17 -57 -5 -50 27 -164 -57 -150 -110 6 -22 16 -62 23 -89 l13 -49 -67 53 -67 52 -57 -41 c-70 -49 -86 -37 -58 43 19 56 16 65 -38 105 -79 58 -74 76 21 76 44 0 80 8 80 19 0 10 10 44 22 75 l22 56 30 -75 c30 -74 54 -86 150 -76 19 2 54 -7 78 -20 38 -20 42 -19 32 9 -7 17 -4 32 6 32 10 0 -17 37 -61 83 -43 46 -79 90 -79 99 0 30 236 46 280 18z m5500 0 c0 -11 23 -20 50 -20 58 0 65 -33 15 -74 -32 -27 -32 -28 10 -19 25 5 45 0 45 -11 0 -13 -28 -17 -72 -10 -54 9 -66 6 -52 -12 33 -39 38 -165 7 -146 -23 14 -18 -100 5 -122 11 -9 13 -6 5 7 -7 13 -2 27 12 32 17 7 26 -13 27 -60 1 -41 15 -81 35 -95 66 -49 36 -70 -97 -70 l-130 0 2 290 2 290 48 0 c26 0 48 9 48 20 0 11 9 20 20 20 11 0 20 -9 20 -20z m-4160 -65 l0 -65 -141 7 -142 6 7 -54 c6 -53 11 -55 126 -57 115 -2 120 -4 126 -57 l7 -55 -133 0 c-132 0 -133 0 -126 -53 6 -51 10 -53 146 -55 137 -2 140 -3 146 -57 l7 -55 -212 0 -211 0 0 269 0 270 195 6 c107 4 197 9 200 11 3 2 5 -25 5 -61z m1181 -375 c119 0 119 0 119 -60 l0 -60 -190 0 -190 0 0 269 0 268 65 7 65 6 6 -215 5 -215 120 0z m1299 400 c57 -31 13 -127 -48 -106 -80 28 -181 18 -188 -18 -5 -25 19 -41 98 -65 175 -52 231 -161 141 -272 -88 -108 -430 -61 -379 52 16 35 33 46 55 37 100 -43 179 -55 208 -30 47 39 19 75 -79 103 -166 46 -225 132 -166 242 46 88 243 119 358 57z m640 -25 l0 -65 -130 7 -130 6 0 -59 0 -60 120 11 120 11 0 -63 0 -63 -120 0 c-118 0 -120 -1 -120 -55 l0 -55 140 7 140 6 0 -61 0 -62 -210 0 -210 0 0 269 0 270 195 6 c107 4 197 9 200 11 3 2 5 -25 5 -61z m-3824 14 c53 -37 60 -139 12 -191 -29 -32 -28 -37 8 -56 86 -46 67 -196 -29 -240 -27 -12 -124 -22 -217 -22 l-168 0 -6 270 -6 270 181 0 c131 0 192 -9 225 -31z m1330 -9 c84 -66 80 -300 -5 -300 -34 0 -24 -39 29 -108 65 -85 63 -92 -19 -92 -60 0 -76 11 -115 80 -68 119 -166 119 -146 0 l14 -80 -72 0 -72 0 0 270 0 270 167 0 c138 0 177 -7 219 -40z m1274 -10 c0 -49 -4 -50 -141 -50 l-142 0 7 -55 c6 -54 9 -55 118 -48 107 6 113 4 122 -45 14 -69 8 -72 -129 -72 -115 0 -118 -1 -111 -53 6 -51 10 -53 146 -55 137 -2 140 -3 146 -57 l7 -55 -212 0 -211 0 0 270 0 270 200 0 200 0 0 -50z m1679 -107 l111 -148 6 153 6 152 64 0 64 0 0 -270 0 -270 -60 1 c-51 0 -76 22 -169 150 -134 183 -134 183 -124 -1 l7 -150 -72 0 -72 0 0 271 0 272 64 -7 c53 -5 83 -31 175 -153z m1004 -43 c92 0 94 -8 19 -72 -52 -44 -57 -56 -41 -112 24 -82 14 -89 -56 -40 -56 40 -57 40 -106 3 -82 -63 -96 -38 -49 85 6 16 -14 42 -50 63 -82 48 -75 73 20 73 70 0 81 6 92 55 23 94 35 97 65 20 26 -69 35 -75 106 -75z m-2333 -756 l260 -78 -2 -318 c-4 -845 -335 -1454 -1005 -1851 l-167 -99 -133 73 c-711 390 -1082 1079 -1059 1967 l6 228 230 68 c127 37 392 111 590 164 l360 96 330 -86 c182 -47 447 -121 590 -164z"/> <path d="M3680 4540 c0 -56 5 -60 78 -60 92 0 141 43 102 90 -50 61 -180 39 -180 -30z"/> <path d="M3680 4320 c0 -69 149 -92 200 -30 46 56 9 90 -99 90 -99 0 -101 -1 -101 -60z"/> <path d="M5033 4587 c-54 -54 -11 -167 63 -167 87 0 124 28 124 93 0 66 -139 121 -187 74z"/> <path d="M5450 3685 c-264 -73 -487 -142 -496 -154 -21 -28 1 -398 37 -613 88 -524 359 -936 815 -1238 l177 -117 103 61 c576 338 876 849 938 1598 27 331 30 324 -127 365 -70 18 -293 78 -497 133 -450 121 -370 124 -950 -35z m856 -119 c180 -52 218 -88 158 -152 -25 -26 -39 -52 -33 -58 6 -7 1 -19 -13 -27 -15 -10 -19 -7 -10 8 26 42 -52 25 -100 -22 -25 -25 -108 -94 -184 -155 -76 -60 -147 -128 -156 -150 -10 -22 -22 -36 -28 -30 -5 5 -38 -10 -73 -35 -77 -55 -90 -55 -222 -5 -169 64 -264 46 -368 -70 l-54 -60 -22 56 c-11 31 -21 119 -21 195 0 79 -9 139 -20 139 -35 0 -23 159 15 197 19 20 134 62 255 92 121 31 233 64 250 74 112 62 416 64 626 3z m86 -666 c-183 -232 -371 -471 -418 -530 -111 -143 -114 -142 -370 160 -299 352 -279 399 91 212 161 -81 136 -88 371 114 366 317 618 508 639 487 14 -14 -90 -160 -313 -443z m386 15 c-6 -154 -125 -500 -188 -547 -17 -12 -30 -32 -30 -44 0 -11 -23 -48 -50 -81 -28 -33 -64 -92 -81 -131 -16 -40 -43 -72 -59 -72 -16 0 -38 -18 -50 -40 -12 -22 -34 -40 -48 -40 -15 0 -42 -22 -60 -50 -18 -27 -39 -48 -47 -47 -8 2 -50 -12 -92 -31 -85 -38 -185 -20 -236 42 -15 18 -78 65 -140 104 -62 40 -114 81 -115 92 -4 27 -142 222 -142 201 0 -36 -22 7 -61 117 -48 137 -32 183 35 100 33 -41 43 -46 34 -18 -13 40 -13 40 18 0 18 -24 23 -45 11 -52 -20 -12 91 -118 125 -118 10 0 18 -15 18 -32 0 -27 5 -28 30 -8 26 22 29 20 18 -7 -25 -66 197 -189 234 -130 10 15 18 19 18 10 1 -54 270 204 270 259 0 15 9 28 20 29 31 1 150 123 138 142 -6 9 5 17 23 17 22 0 29 11 21 31 -6 17 -4 26 6 20 19 -11 122 112 122 146 0 11 16 26 35 33 19 7 74 66 122 131 108 149 107 149 101 -26z"/> <path d="M3300 3860 c-20 -13 197 -19 630 -17 363 1 633 9 600 17 -90 23 -1195 23 -1230 0z"/> <path d="M7740 3860 c-200 -9 -107 -13 360 -16 413 -2 620 3 600 16 -31 20 -494 20 -960 0z"/> <path d="M2864 1796 c-13 -13 -24 -43 -24 -66 0 -23 11 -53 24 -66 13 -13 43 -24 66 -24 23 0 53 11 66 24 13 13 24 43 24 66 0 23 -11 53 -24 66 -13 13 -43 24 -66 24 -23 0 -53 -11 -66 -24z"/> <path d="M9004 1796 c-55 -55 -20 -156 54 -156 95 0 135 84 71 149 -38 37 -92 40 -125 7z"/> <path d="M3490 1385 c-55 -107 -102 -200 -105 -207 -3 -6 17 -21 44 -34 49 -22 53 -18 116 101 l65 125 6 -129 c8 -165 29 -176 151 -79 118 94 131 90 70 -25 -78 -146 -78 -150 -24 -175 48 -22 51 -18 148 189 116 247 112 225 48 249 -44 17 -65 8 -165 -70 -146 -115 -144 -116 -144 59 0 127 -6 153 -39 170 -63 34 -68 29 -171 -174z"/> <path d="M8226 1516 c-45 -22 -50 -265 -9 -468 18 -88 103 -62 103 31 0 50 13 67 83 102 l82 43 41 -41 c38 -38 45 -39 100 -10 32 17 51 37 41 45 -197 168 -383 322 -389 321 -4 -1 -28 -11 -52 -23z m142 -174 l56 -59 -62 -32 c-61 -31 -62 -31 -62 13 0 26 -6 66 -13 91 -16 62 15 56 81 -13z"/> <path d="M7703 1299 c-35 -14 -43 -29 -33 -54 8 -19 45 -116 81 -215 63 -174 120 -226 180 -165 10 10 -156 455 -169 454 -7 -1 -33 -10 -59 -20z"/> <path d="M4345 1051 c-175 -203 -184 -222 -115 -239 39 -10 61 -3 86 27 52 62 209 13 224 -70 7 -41 25 -60 68 -72 l57 -15 -12 87 c-6 49 -18 161 -25 250 -14 164 -35 202 -112 200 -14 0 -91 -76 -171 -168z m187 -126 c-14 -14 -112 20 -112 39 0 11 20 44 45 74 l45 55 15 -80 c8 -44 11 -84 7 -88z"/> <path d="M7182 1149 c-195 -85 -145 -269 73 -269 111 0 144 -23 102 -73 -19 -23 -50 -29 -121 -22 -82 8 -97 3 -108 -30 -18 -57 26 -78 138 -69 270 23 298 294 31 294 -103 0 -135 24 -95 73 19 22 48 28 100 21 63 -8 76 -3 85 32 21 81 -72 100 -205 43z"/> <path d="M5070 1072 c-19 -66 -70 -439 -61 -448 9 -9 317 -63 324 -57 32 28 9 104 -33 108 -27 3 -78 10 -111 16 l-62 9 36 175 c19 96 36 181 36 188 2 23 -122 31 -129 9z"/> <path d="M6716 1066 c-18 -4 -49 -49 -68 -98 -46 -121 -55 -122 -130 -19 -60 85 -121 105 -175 59 -4 -3 43 -67 105 -141 98 -118 112 -147 112 -221 0 -91 2 -93 77 -73 43 12 47 21 36 97 -9 70 1 110 58 229 90 188 89 195 -15 167z"/> <path d="M5841 972 c-10 -24 -58 -131 -108 -238 l-90 -194 68 0 c56 0 70 9 81 50 21 83 210 75 242 -10 21 -56 95 -84 130 -49 35 35 -185 459 -245 472 -51 10 -64 5 -78 -31z m109 -165 c36 -86 33 -92 -46 -83 l-60 6 30 75 c37 92 38 92 76 2z"/> </g> </svg>